<svg class="pol-logo__svg" xmlns="http://www.w3.org/2000/svg" viewBox="0 0 795 92">
  <path d="M56.7 58.1H37.3v11c0 1.7.8 3.4 3.7 3.4h14.2v16.7H0V72.5h7.8c3 0 3.7-1.7 3.7-3.4V22.7c0-1.7-.8-3.4-3.7-3.4H0V2.6h57.8c19.1 0 32.3 11.4 32.3 28C90.2 48 78 58.1 56.7 58.1zm-4-38.8H37.3v22.3h14.9c7.2 0 11.9-4.3 11.9-10.9.1-6.3-4.6-11.4-11.4-11.4zm85.1 72.3c-32.5 0-44.8-17.8-44.8-47C93 21.9 106 .4 137 .4c29.5 0 45.6 15.2 45.6 44.6.1 29.4-16.5 46.6-44.8 46.6zm0-74.7C123 16.9 120.5 28 120.5 47c0 15.2 2.3 27 17.3 27 13.5 0 17.3-10.6 17.3-26.8 0-19.8-3.1-30.3-17.3-30.3zm47.4 72.3V72.5h7.8c3 0 3.7-1.7 3.7-3.4V22.7c0-1.7-.8-3.4-3.7-3.4h-7.8V2.6H237v16.7h-10.4c-3 0-3.7 1.7-3.7 3.4v43.9c0 3.5 1.8 5.7 8.5 5.7 11 0 17.8-2.2 18.4-14.8l.2-6.5h17.8v38.2h-82.6zm88.3 0V72.5h9.1c3 0 3.7-1.7 3.7-3.4V22.7c0-1.7-.8-3.4-3.7-3.4h-9.1V2.6h52.1v16.7h-9.1c-3 0-3.7 1.7-3.7 3.4V69c0 1.7.8 3.4 3.7 3.4h9.1v16.7h-52.1v.1zm129.5-48V25.3c0-3.2-1.9-6-5.8-6h-8V69c0 1.7.8 3.4 3.7 3.4h10.4v16.8H349V72.5h10.4c3 0 3.7-1.7 3.7-3.4V19.4h-8c-4 0-5.8 2.7-5.8 6v15.9h-18.2V2.7h90.1v38.6H403v-.1zm23.8 48V72.5h9.1c3 0 3.7-1.7 3.7-3.4V22.7c0-1.7-.8-3.4-3.7-3.4h-9.1V2.6h52.1v16.7h-9.1c-3 0-3.7 1.7-3.7 3.4V69c0 1.7.8 3.4 3.7 3.4h9.1v16.7h-52.1v.1zm112.9 0V72.5h4.1c2.8 0 3.1-2.7 2.1-4.3l-11.2-16.6-12.1 10.1v7.4c0 1.7.8 3.4 3.7 3.4h5.3v16.7H485V72.5h7.8c3 0 3.7-1.7 3.7-3.4V22.7c0-1.7-.8-3.4-3.7-3.4H485V2.6h46.6v16.7h-5.3c-3 0-3.7 1.7-3.7 3.4v21.1l24.9-20.9c1.4-1.2 1.3-3.6-1.4-3.6h-6.4V2.6h47.6v16.7h-7.6c-3.1 0-7.2 1.2-10.1 3.6l-14.4 11.9 23.2 34c1.4 1.9 4.4 3.5 6.9 3.5h4.5v16.8h-50.1v.1zm55.3 0V72.5h7.8c3 0 3.7-1.7 3.7-3.4V22.7c0-1.7-.8-3.4-3.7-3.4H595V2.6h88v33.6h-16.7l-.6-10.6c-.1-3.1-1.4-6.2-6.5-6.2h-26.4v18.9h7.2c2.3 0 3.1-1.6 3.3-3.5l.6-5.7h12.2v31h-12.2l-.6-5.1c-.3-1.7-1-3.1-3.2-3.1h-7.3v15.6c0 3.5 1.8 4.9 5 4.9h18.1c7.1 0 10.3-3.6 10.5-9.5l.5-10.9h17.7v37.1l-89.6.1zm192.1-69.9c-3 0-3.7 1.7-3.7 3.4v66.5h-21l-39.9-49.8v29.7c0 1.7.8 3.4 3.7 3.4h7.8v16.7h-43.2V72.5h7.8c3 0 3.7-1.7 3.7-3.4V22.7c0-1.7-.8-3.4-3.7-3.4h-7.8V2.6H727l36.2 46V22.7c0-1.7-.8-3.4-3.7-3.4h-7.8V2.6H795v16.7h-7.9z"></path>
</svg>